<mxfile host="app.diagrams.net" modified="2023-06-14T16:40:51.497Z" agent="Mozilla/5.0 (Windows NT 10.0; Win64; x64; rv:109.0) Gecko/20100101 Firefox/114.0" etag="KkvYmRmDmwCy_TxAKcSE" version="21.3.8" type="github">
  <diagram name="Page-1" id="DQJ-7JEXpUN3EwawXKOC">
    <mxGraphModel dx="1290" dy="538" grid="1" gridSize="10" guides="1" tooltips="1" connect="1" arrows="1" fold="1" page="1" pageScale="1" pageWidth="827" pageHeight="1169" math="0" shadow="0">
      <root>
        <mxCell id="0" />
        <mxCell id="1" parent="0" />
        <mxCell id="YWrcRchPcofO2xpShFlW-1" value="Etoiles" style="swimlane;fontStyle=1;align=center;verticalAlign=top;childLayout=stackLayout;horizontal=1;startSize=26;horizontalStack=0;resizeParent=1;resizeParentMax=0;resizeLast=0;collapsible=1;marginBottom=0;whiteSpace=wrap;html=1;" vertex="1" parent="1">
          <mxGeometry x="510" y="150" width="220" height="320" as="geometry" />
        </mxCell>
        <mxCell id="YWrcRchPcofO2xpShFlW-2" value="&lt;div&gt;- chapeau1 : Chapeaux&lt;/div&gt;&lt;div&gt;- chapeau2 : Chapeaux&lt;/div&gt;&lt;div&gt;- chapeau3: Chapeaux&lt;/div&gt;&lt;div&gt;- chapeau4 : Chapeaux&lt;/div&gt;" style="text;strokeColor=none;fillColor=none;align=left;verticalAlign=top;spacingLeft=4;spacingRight=4;overflow=hidden;rotatable=0;points=[[0,0.5],[1,0.5]];portConstraint=eastwest;whiteSpace=wrap;html=1;" vertex="1" parent="YWrcRchPcofO2xpShFlW-1">
          <mxGeometry y="26" width="220" height="64" as="geometry" />
        </mxCell>
        <mxCell id="YWrcRchPcofO2xpShFlW-3" value="" style="line;strokeWidth=1;fillColor=none;align=left;verticalAlign=middle;spacingTop=-1;spacingLeft=3;spacingRight=3;rotatable=0;labelPosition=right;points=[];portConstraint=eastwest;strokeColor=inherit;" vertex="1" parent="YWrcRchPcofO2xpShFlW-1">
          <mxGeometry y="90" width="220" height="8" as="geometry" />
        </mxCell>
        <mxCell id="YWrcRchPcofO2xpShFlW-4" value="&lt;div&gt;+ &amp;lt;&amp;lt;Constructeur&amp;gt;&amp;gt;Etoiles()&lt;/div&gt;&lt;div&gt;+ &amp;lt;&amp;lt;Constructeur&amp;gt;&amp;gt;Etoiles(Chapeaux, Chapeaux, Chapeaux, Chapeaux)&lt;/div&gt;&lt;div&gt;+ getChapeau1() : Chapeaux&lt;/div&gt;&lt;div&gt;+ getChapeau2() : Chapeaux&lt;/div&gt;&lt;div&gt;+ getChapeau3() : Chapeaux&lt;/div&gt;&lt;div&gt;+ getChapeau4() : Chapeaux&lt;/div&gt;&lt;div&gt;+ setChapeau1(Chapeaux) : void&lt;/div&gt;&lt;div&gt;+ setChapeau2(Chapeaux) : void&lt;/div&gt;&lt;div&gt;+ setChapeau3(Chapeaux) : void&lt;/div&gt;&lt;div&gt;+ setChapeau4(Chapeaux) : void&lt;/div&gt;&lt;div&gt;+ deplacer(int, int) : void&lt;/div&gt;&lt;div&gt;&lt;div&gt;&lt;div&gt;+ dessiner() : ArrayList&amp;lt;Segment&amp;gt;&lt;/div&gt;&lt;div&gt;+ typeForme() : String&lt;/div&gt;+ toString() : String&lt;/div&gt;&lt;/div&gt;" style="text;strokeColor=none;fillColor=none;align=left;verticalAlign=top;spacingLeft=4;spacingRight=4;overflow=hidden;rotatable=0;points=[[0,0.5],[1,0.5]];portConstraint=eastwest;whiteSpace=wrap;html=1;" vertex="1" parent="YWrcRchPcofO2xpShFlW-1">
          <mxGeometry y="98" width="220" height="222" as="geometry" />
        </mxCell>
        <mxCell id="YWrcRchPcofO2xpShFlW-5" value="Maisons" style="swimlane;fontStyle=1;align=center;verticalAlign=top;childLayout=stackLayout;horizontal=1;startSize=26;horizontalStack=0;resizeParent=1;resizeParentMax=0;resizeLast=0;collapsible=1;marginBottom=0;whiteSpace=wrap;html=1;" vertex="1" parent="1">
          <mxGeometry x="150" y="150" width="240" height="290" as="geometry" />
        </mxCell>
        <mxCell id="YWrcRchPcofO2xpShFlW-6" value="&lt;div&gt;- toit : Triangles&lt;/div&gt;&lt;div&gt;- corps : Quadrilateres&lt;/div&gt;&lt;div&gt;- porte : Quadrilateres&lt;br&gt;&lt;/div&gt;" style="text;strokeColor=none;fillColor=none;align=left;verticalAlign=top;spacingLeft=4;spacingRight=4;overflow=hidden;rotatable=0;points=[[0,0.5],[1,0.5]];portConstraint=eastwest;whiteSpace=wrap;html=1;" vertex="1" parent="YWrcRchPcofO2xpShFlW-5">
          <mxGeometry y="26" width="240" height="54" as="geometry" />
        </mxCell>
        <mxCell id="YWrcRchPcofO2xpShFlW-7" value="" style="line;strokeWidth=1;fillColor=none;align=left;verticalAlign=middle;spacingTop=-1;spacingLeft=3;spacingRight=3;rotatable=0;labelPosition=right;points=[];portConstraint=eastwest;strokeColor=inherit;" vertex="1" parent="YWrcRchPcofO2xpShFlW-5">
          <mxGeometry y="80" width="240" height="8" as="geometry" />
        </mxCell>
        <mxCell id="YWrcRchPcofO2xpShFlW-8" value="&lt;div&gt;+ &amp;lt;&amp;lt;Constructeur&amp;gt;&amp;gt;Maisons()&lt;/div&gt;&lt;div&gt;&lt;div&gt;+ &amp;lt;&amp;lt;Constructeur&amp;gt;&amp;gt;Maisons(Triangles, Quadrilateres, Quadrilateres)&lt;/div&gt;&lt;div&gt;+ getToit() : Triangles&lt;/div&gt;&lt;div&gt;+ getCorps() : Quadrilatere&lt;/div&gt;&lt;div&gt;+ getPorte() : Quadrilatere&lt;/div&gt;&lt;div&gt;+ setToit(Triangles) : void&lt;/div&gt;&lt;div&gt;+ setCorps(Quadrilateres) : void&lt;/div&gt;&lt;div&gt;+ setPorte(Quadrilateres) : void&lt;/div&gt;&lt;div&gt;+ deplacer(int, int) : void&lt;/div&gt;&lt;div&gt;+ dessiner() : ArrayList&amp;lt;Segment&amp;gt;&lt;/div&gt;&lt;div&gt;+ typeForme() : String&lt;/div&gt;&lt;div&gt;+ toString() : String&lt;br&gt;&lt;/div&gt;&lt;/div&gt;" style="text;strokeColor=none;fillColor=none;align=left;verticalAlign=top;spacingLeft=4;spacingRight=4;overflow=hidden;rotatable=0;points=[[0,0.5],[1,0.5]];portConstraint=eastwest;whiteSpace=wrap;html=1;" vertex="1" parent="YWrcRchPcofO2xpShFlW-5">
          <mxGeometry y="88" width="240" height="202" as="geometry" />
        </mxCell>
      </root>
    </mxGraphModel>
  </diagram>
</mxfile>
